nColumns=19
nRows=49
DataType=double
version=3
OpenSimVersion=4.1
endheader
time	ground_force_calcn_l_vx	ground_force_calcn_l_vy	ground_force_calcn_l_vz	ground_force_calcn_l_px	ground_force_calcn_l_py	ground_force_calcn_l_pz	ground_force_calcn_l_mx	ground_force_calcn_l_my	ground_force_calcn_l_mz	ground_force_calcn_r_vx	ground_force_calcn_r_vy	ground_force_calcn_r_vz	ground_force_calcn_r_px	ground_force_calcn_r_py	ground_force_calcn_r_pz	ground_force_calcn_r_mx	ground_force_calcn_r_my	ground_force_calcn_r_mz
2.48501	-3.33945	362.764	35.72	-0.219725	-2.43183e-17	0.187967	-0.0232295	2.52341	0.248471	-0.103981	375.734	-30.9049	-0.202581	-2.25438e-17	-0.133549	-0.000600834	2.1711	-0.178578
2.49499	-3.82701	364.073	35.7753	-0.219571	-2.42982e-17	0.187665	-0.0277302	2.63805	0.259226	0.699494	378.989	-30.5232	-0.202272	-2.2511e-17	-0.133533	0.00424497	2.29994	-0.185234
2.50497	-4.37377	365.127	35.8037	-0.219397	-2.42759e-17	0.187331	-0.0329529	2.75094	0.269752	1.30366	381.968	-30.1206	-0.201994	-2.2481e-17	-0.133543	0.00821401	2.40668	-0.189782
2.51495	-4.97958	365.893	35.7825	-0.21919	-2.42505e-17	0.186975	-0.0387786	2.8494	0.278657	1.70743	384.553	-29.7013	-0.201779	-2.24575e-17	-0.133584	0.0110564	2.49016	-0.19233
2.52493	-5.6459	366.353	35.7074	-0.218963	-2.42234e-17	0.186595	-0.0450751	2.92484	0.285077	1.94271	386.682	-29.2703	-0.20162	-2.24397e-17	-0.133651	0.0128023	2.54819	-0.192888
2.53491	-6.35036	366.506	35.5826	-0.218713	-2.41944e-17	0.186198	-0.0516199	2.9792	0.289239	2.07526	388.339	-28.818	-0.201504	-2.24262e-17	-0.13372	0.0137814	2.57889	-0.191375
2.54489	-7.0767	366.381	35.4095	-0.218447	-2.41642e-17	0.185792	-0.0582154	3.01398	0.291291	2.14918	389.534	-28.3559	-0.201411	-2.24149e-17	-0.133776	0.014292	2.59039	-0.188566
2.55487	-7.79877	366.021	35.1879	-0.218158	-2.41323e-17	0.185379	-0.0643534	3.02031	0.290361	2.19782	390.312	-27.9191	-0.201314	-2.24029e-17	-0.133803	0.014566	2.58678	-0.185033
2.56485	-8.4657	365.496	34.9097	-0.217826	-2.40964e-17	0.184952	-0.0695735	3.00375	0.286898	2.26151	390.73	-27.5262	-0.201192	-2.23882e-17	-0.133793	0.0148545	2.56647	-0.180803
2.57483	-9.02329	364.888	34.5966	-0.217436	-2.40546e-17	0.184539	-0.0733846	2.96756	0.281367	2.33409	390.872	-27.1783	-0.201033	-2.23691e-17	-0.133748	0.0151187	2.53182	-0.176044
2.58481	-9.45443	364.262	34.2801	-0.216992	-2.40077e-17	0.184171	-0.0753391	2.90268	0.273166	2.37618	390.819	-26.8709	-0.20082	-2.2344e-17	-0.133674	0.0151198	2.4868	-0.170981
2.59479	-9.74165	363.665	33.9807	-0.216489	-2.39548e-17	0.183844	-0.075431	2.81591	0.263117	2.35283	390.645	-26.5941	-0.200542	-2.23114e-17	-0.133563	0.0145516	2.41603	-0.164477
2.60477	-9.8664	363.149	33.6969	-0.215917	-2.38943e-17	0.183546	-0.0740127	2.72416	0.252777	2.22797	390.425	-26.344	-0.200176	-2.22684e-17	-0.133432	0.0132334	2.31901	-0.156476
2.61475	-9.84785	362.768	33.4373	-0.215285	-2.38273e-17	0.18328	-0.0713717	2.62914	0.242335	1.95631	390.23	-26.1104	-0.199716	-2.22151e-17	-0.133316	0.011085	2.21115	-0.147948
2.62473	-9.71694	362.541	33.2003	-0.214608	-2.37556e-17	0.183044	-0.0675902	2.5218	0.230939	1.54213	390.108	-25.8763	-0.199189	-2.2154e-17	-0.133231	0.00828868	2.09677	-0.139081
2.63471	-9.50862	362.462	32.9769	-0.213911	-2.36821e-17	0.182825	-0.0628945	2.3975	0.218125	1.02135	390.09	-25.6336	-0.198613	-2.20874e-17	-0.133174	0.0051752	1.9766	-0.129886
2.64469	-9.28059	362.539	32.7528	-0.213217	-2.36092e-17	0.182588	-0.0579663	2.26441	0.204573	0.395736	390.19	-25.3806	-0.198003	-2.20172e-17	-0.13316	0.00188424	1.85783	-0.120846
2.65467	-9.08427	362.813	32.5358	-0.212517	-2.35358e-17	0.182333	-0.0532053	2.12494	0.190558	-0.325838	390.408	-25.1264	-0.197382	-2.19457e-17	-0.133188	-0.00145589	1.74439	-0.112268
2.66465	-8.93927	363.337	32.3263	-0.211806	-2.34613e-17	0.182067	-0.0487889	1.98303	0.176431	-1.09836	390.716	-24.8723	-0.196764	-2.18746e-17	-0.133237	-0.00456424	1.62363	-0.103357
2.67463	-8.87135	364.127	32.1184	-0.211114	-2.33886e-17	0.181781	-0.0451508	1.85323	0.163467	-1.8827	391.075	-24.6226	-0.196144	-2.18033e-17	-0.133286	-0.00723848	1.50358	-0.0946671
2.68461	-8.89348	365.179	31.8891	-0.210472	-2.33209e-17	0.181466	-0.0423832	1.74031	0.151972	-2.65977	391.461	-24.393	-0.195525	-2.17322e-17	-0.133328	-0.00946812	1.39351	-0.0868332
2.69459	-8.999	366.481	31.5952	-0.209867	-2.32567e-17	0.18112	-0.040595	1.65322	0.142528	-3.39318	391.852	-24.1867	-0.194904	-2.16612e-17	-0.133363	-0.0111738	1.29037	-0.0796473
2.70457	-9.16468	368.001	31.2082	-0.209274	-2.31934e-17	0.180772	-0.0395729	1.58902	0.134756	-4.07278	392.222	-24.0012	-0.19429	-2.15912e-17	-0.133388	-0.0123923	1.19341	-0.0730284
2.71455	-9.37937	369.671	30.7143	-0.208706	-2.31325e-17	0.180417	-0.0392247	1.54597	0.128448	-4.71662	392.555	-23.849	-0.193701	-2.15243e-17	-0.133405	-0.0134223	1.11711	-0.0678682
2.72453	-9.61478	371.414	30.1057	-0.208227	-2.30809e-17	0.180057	-0.0394513	1.52398	0.123529	-5.33545	392.838	-23.7255	-0.193152	-2.14622e-17	-0.133409	-0.0143113	1.05371	-0.0636391
2.73451	-9.84921	373.166	29.3848	-0.207863	-2.30418e-17	0.179694	-0.0402161	1.5237	0.119983	-5.92824	393.023	-23.6158	-0.192648	-2.1405e-17	-0.133387	-0.0149592	0.991746	-0.0595917
2.74449	-10.1005	374.893	28.5614	-0.207595	-2.30127e-17	0.179309	-0.0417501	1.5496	0.118057	-6.51622	393.061	-23.5235	-0.192195	-2.13537e-17	-0.133342	-0.0154602	0.932569	-0.0558113
2.75447	-10.3848	376.558	27.626	-0.207403	-2.2992e-17	0.178903	-0.0438043	1.58837	0.11653	-7.10924	392.917	-23.4396	-0.191759	-2.13041e-17	-0.133277	-0.0157127	0.868418	-0.0518057
2.76445	-10.6993	378.138	26.5693	-0.207308	-2.29823e-17	0.178493	-0.0459661	1.62455	0.114147	-7.6731	392.557	-23.3411	-0.191303	-2.12523e-17	-0.133196	-0.0155535	0.795717	-0.0473127
2.77443	-11.0372	379.62	25.4053	-0.207309	-2.29837e-17	0.178097	-0.0478766	1.64669	0.110202	-8.2151	391.948	-23.2229	-0.190846	-2.12001e-17	-0.133105	-0.0149234	0.712007	-0.0421863
2.78441	-11.3926	381.003	24.1439	-0.207388	-2.29942e-17	0.177717	-0.0494731	1.65452	0.104846	-8.72117	391.062	-23.0851	-0.19041	-2.11503e-17	-0.133005	-0.0140761	0.63118	-0.0372597
2.79439	-11.7444	382.303	22.8062	-0.207507	-2.30093e-17	0.177375	-0.0507311	1.6514	0.0985141	-9.15796	389.875	-22.9103	-0.189997	-2.11032e-17	-0.132904	-0.0130432	0.555278	-0.0326299
2.80437	-12.085	383.54	21.4199	-0.207638	-2.3026e-17	0.177081	-0.051576	1.63686	0.0914154	-9.49698	388.403	-22.6942	-0.189615	-2.10595e-17	-0.132808	-0.0117441	0.480306	-0.028064
2.81435	-12.4102	384.721	19.9928	-0.207761	-2.3042e-17	0.176826	-0.0518942	1.60874	0.0836012	-9.73253	386.677	-22.4426	-0.189267	-2.10198e-17	-0.132722	-0.0104363	0.414636	-0.0240654
2.82433	-12.7082	385.858	18.5258	-0.207876	-2.30571e-17	0.1766	-0.0517489	1.57124	0.0754384	-9.8533	384.734	-22.1522	-0.188965	-2.09853e-17	-0.132644	-0.00914443	0.357055	-0.0205585
2.83431	-12.9693	386.95	17.0407	-0.207985	-2.30717e-17	0.176399	-0.0510809	1.52404	0.0671164	-9.86218	382.612	-21.8197	-0.188702	-2.09552e-17	-0.132583	-0.00791789	0.307182	-0.017518
2.84429	-13.2102	387.985	15.5823	-0.208091	-2.30859e-17	0.176225	-0.0498745	1.46482	0.0588303	-9.77806	380.336	-21.4511	-0.18846	-2.09278e-17	-0.132547	-0.00697718	0.27139	-0.0153065
2.85427	-13.4523	388.941	14.1681	-0.208201	-2.31004e-17	0.17606	-0.0486707	1.40719	0.0512602	-9.61238	377.911	-21.0507	-0.188259	-2.09049e-17	-0.132532	-0.00605981	0.238241	-0.0132707
2.86425	-13.7014	389.801	12.7923	-0.208305	-2.31139e-17	0.175896	-0.0474839	1.35091	0.0443335	-9.37262	375.35	-20.6219	-0.188103	-2.08869e-17	-0.132545	-0.00502596	0.201277	-0.0110582
2.87423	-13.9731	390.543	11.4517	-0.208395	-2.31257e-17	0.175724	-0.0462206	1.29185	0.0378802	-9.08578	372.667	-20.1656	-0.187974	-2.0872e-17	-0.132591	-0.00408358	0.167494	-0.00906336
2.88421	-14.2595	391.126	10.1589	-0.208447	-2.31333e-17	0.175557	-0.044689	1.22578	0.0318378	-8.78455	369.88	-19.6726	-0.187877	-2.08608e-17	-0.132675	-0.00336393	0.141641	-0.00753339
2.89419	-14.5529	391.507	8.92683	-0.208482	-2.31387e-17	0.175408	-0.0427561	1.15024	0.0262268	-8.46762	367.042	-19.1334	-0.187801	-2.0852e-17	-0.132798	-0.00273001	0.118336	-0.00616871
2.90417	-14.8509	391.651	7.7571	-0.208518	-2.31442e-17	0.175265	-0.0403628	1.06446	0.0210828	-8.14817	364.206	-18.5484	-0.187754	-2.08464e-17	-0.132959	-0.00229055	0.102383	-0.0052142
2.91415	-15.1418	391.518	6.63218	-0.208572	-2.31514e-17	0.175111	-0.0377534	0.976181	0.0165362	-7.82762	361.412	-17.9409	-0.18774	-2.0845e-17	-0.133162	-0.00235439	0.108705	-0.00539625
2.92413	-15.3975	391.096	5.54041	-0.20865	-2.31613e-17	0.174947	-0.0349188	0.886934	0.0125646	-7.47427	358.698	-17.3231	-0.187732	-2.08447e-17	-0.133403	-0.00309122	0.148351	-0.00716454
2.93411	-15.5856	390.396	4.48347	-0.20874	-2.31721e-17	0.174797	-0.0318264	0.797203	0.00915542	-7.07677	356.097	-16.6926	-0.187747	-2.08474e-17	-0.133691	-0.00438558	0.220679	-0.0103446
2.94409	-15.6761	389.443	3.48712	-0.208857	-2.3186e-17	0.174688	-0.0284585	0.706995	0.00633051	-6.64092	353.632	-16.0473	-0.187803	-2.0855e-17	-0.134032	-0.00622202	0.331325	-0.0150351
2.95407	-15.6557	388.249	2.57603	-0.209015	-2.32041e-17	0.17463	-0.0250953	0.622344	0.00412925	-6.17575	351.337	-15.3776	-0.187892	-2.08667e-17	-0.134418	-0.00827545	0.470789	-0.0206058
2.96405	-15.5393	386.826	1.75251	-0.209213	-2.32266e-17	0.174612	-0.0219227	0.545731	0.00247242	-5.67906	349.245	-14.6855	-0.188016	-2.08823e-17	-0.134844	-0.0101018	0.621232	-0.0261223
